<?xml version="1.0" standalone="no"?>
<!DOCTYPE svg PUBLIC "-//W3C//DTD SVG 20010904//EN"
 "http://www.w3.org/TR/2001/REC-SVG-20010904/DTD/svg10.dtd">
<svg version="1.0" xmlns="http://www.w3.org/2000/svg"
 width="447.000000pt" height="447.000000pt" viewBox="0 0 447.000000 447.000000"
 preserveAspectRatio="xMidYMid meet">

<g transform="translate(0.000000,447.000000) scale(0.100000,-0.100000)"
fill="#000000" stroke="none">
<path d="M0 2235 l0 -2235 2235 0 2235 0 0 2235 0 2235 -2235 0 -2235 0 0
-2235z m1370 939 c12 -31 13 -44 1 -25 -12 19 -41 6 -41 -18 0 -11 -5 -23 -11
-27 -9 -5 -10 4 -4 32 12 65 38 83 55 38z m-14 -137 c-14 -28 -25 -48 -26 -43
0 14 -40 -26 -56 -56 -19 -37 -18 -48 6 -48 11 0 20 6 20 14 0 7 10 24 23 37
30 33 66 25 89 -20 15 -30 15 -37 2 -63 -8 -15 -19 -28 -24 -28 -6 0 -10 -6
-10 -13 0 -13 -66 -12 -74 2 -3 4 10 5 27 3 45 -5 82 34 68 71 -8 21 -17 27
-40 27 -15 0 -34 -6 -40 -14 -10 -12 -7 -15 21 -19 20 -2 11 -4 -26 -5 l-58
-2 16 -27 17 -28 -25 29 c-45 53 -21 122 71 213 18 17 34 40 34 50 1 13 3 12
6 -5 2 -12 -7 -46 -21 -75z m-155 -77 c0 -78 -2 -145 -5 -148 -3 -3 -6 64 -6
148 0 84 3 151 6 148 3 -3 5 -70 5 -148z m2089 0 c0 -93 -4 -150 -10 -150 -5
0 -10 16 -10 35 0 21 -5 35 -12 36 -10 0 -10 2 0 6 8 3 12 28 12 74 0 48 -4
69 -12 70 -10 0 -10 2 0 6 6 2 12 20 12 39 0 19 5 34 10 34 6 0 10 -57 10
-150z m-1953 -206 c4 -10 0 -22 -10 -29 -9 -7 -13 -16 -9 -21 4 -4 -1 -2 -10
5 -18 14 -24 42 -11 54 12 13 34 7 40 -9z m41 -38 c-7 -6 -10 -7 -5 -2 4 6 8
21 8 36 2 25 2 25 6 1 3 -13 -1 -29 -9 -35z m-428 -293 c-34 -7 -50 -21 -50
-47 0 -24 22 -47 82 -87 59 -38 72 -94 32 -134 -9 -8 -23 -15 -32 -15 -15 1
-15 2 1 11 11 6 17 22 17 44 0 29 -6 38 -47 66 -61 41 -82 67 -83 101 0 33 42
69 79 67 l26 -2 -25 -4z m69 -47 c-1 -21 -3 -25 -6 -11 -3 11 -12 28 -20 37
-13 15 -13 16 6 11 16 -4 21 -13 20 -37z m944 29 c-12 -8 -24 -25 -26 -38 -3
-13 -5 -8 -6 16 -1 34 1 37 26 37 27 0 27 0 6 -15z m97 -119 c0 -120 2 -135
18 -139 9 -3 -10 -5 -43 -5 -45 -1 -54 1 -37 8 21 9 22 14 22 140 0 123 1 130
20 130 19 0 20 -7 20 -134z m89 92 l-1 -43 -9 33 c-6 19 -19 37 -32 42 -20 8
-19 9 11 9 31 1 32 0 31 -41z m943 -94 l-3 -135 53 3 c51 3 54 5 65 38 l12 35
0 -42 1 -43 -102 0 c-75 1 -98 3 -85 11 15 9 17 26 17 134 0 89 -3 125 -12
128 -7 3 3 6 22 6 l35 1 -3 -136z m-1952 49 c0 -15 1 -15 18 0 40 36 103 10
118 -48 14 -56 -26 -145 -64 -145 -11 0 -13 3 -6 8 21 14 34 51 34 99 0 81
-49 122 -84 71 -23 -33 -22 -153 2 -168 16 -11 16 -11 0 -6 -14 4 -18 -1 -18
-24 0 -17 7 -33 18 -39 13 -8 6 -10 -31 -11 -44 0 -47 1 -33 16 23 22 23 210
0 242 -15 21 -14 22 15 22 22 0 31 -5 31 -17z m254 9 c-37 -24 -45 -125 -13
-166 25 -31 47 -33 83 -5 20 16 24 17 20 4 -15 -38 -100 -49 -133 -16 -26 26
-36 82 -21 125 11 34 43 66 65 66 6 0 6 -3 -1 -8z m68 -9 c8 -10 18 -28 21
-40 4 -18 1 -23 -14 -23 -12 0 -19 7 -19 18 0 10 -7 28 -16 40 -12 18 -13 22
-1 22 8 0 21 -8 29 -17z m133 -8 c-21 -20 -25 -34 -25 -80 0 -86 46 -120 99
-72 l25 22 -16 -25 c-16 -26 -52 -36 -94 -26 -59 15 -72 138 -19 183 36 32 61
30 30 -2z m79 6 c19 -21 14 -41 -11 -41 -11 0 -14 6 -9 24 4 18 1 26 -11 29
-15 4 -15 5 -2 6 9 0 24 -8 33 -18z m640 3 c12 -11 16 -36 16 -94 0 -65 3 -81
18 -89 15 -9 13 -10 -10 -11 -15 0 -31 7 -36 16 -8 14 -10 14 -21 0 -19 -23
-78 -21 -90 2 -18 34 -2 59 55 86 42 20 54 31 54 48 0 27 -10 43 -30 51 -10 4
-8 6 7 6 12 1 29 -6 37 -15z m141 -9 c-19 -19 -25 -35 -25 -70 0 -91 51 -134
100 -85 24 24 27 14 3 -12 -24 -26 -84 -24 -111 5 -43 45 -37 139 11 172 34
24 49 17 22 -10z m80 9 c19 -20 15 -38 -10 -42 -14 -3 -17 1 -11 21 4 16 1 27
-7 30 -8 4 -9 6 0 6 6 1 19 -6 28 -15z m203 -4 c12 -11 25 -32 28 -46 11 -43
-3 -107 -26 -126 -31 -25 -44 -22 -26 4 18 26 22 129 6 159 -7 12 -21 19 -40
19 -19 0 -33 -7 -40 -19 -16 -30 -12 -133 6 -159 8 -12 13 -22 10 -22 -70 0
-90 148 -27 197 25 20 84 16 109 -7z m650 7 c6 -7 12 -51 14 -97 3 -74 5 -85
20 -84 10 1 15 -2 12 -7 -9 -15 -52 -10 -62 7 -8 14 -10 14 -21 0 -28 -33 -91
-16 -91 24 0 30 22 54 60 65 25 7 25 7 -3 -15 -31 -25 -33 -56 -5 -74 27 -17
58 18 58 66 0 29 -3 37 -12 32 -10 -6 -9 -3 0 8 7 9 12 29 10 45 -2 24 -8 29
-36 31 -31 3 -32 2 -26 -22 5 -22 3 -26 -15 -26 -26 0 -29 34 -3 49 24 15 88
13 100 -2z m132 -9 l0 -21 23 21 c13 12 30 22 39 22 20 0 42 -26 33 -40 -11
-18 -35 -11 -35 10 0 56 -52 -6 -58 -69 -6 -63 3 -98 26 -104 9 -3 -8 -5 -38
-6 -42 0 -51 2 -37 10 24 14 25 159 1 183 -14 15 -13 16 15 16 25 0 31 -4 31
-22z m-1286 -29 c-7 -12 -31 -11 -39 1 -4 6 -1 18 6 26 12 14 14 14 26 -2 7
-9 10 -21 7 -25z m-354 -49 c0 -6 -30 -10 -70 -10 -40 0 -70 4 -70 10 0 6 30
10 70 10 40 0 70 -4 70 -10z m1090 0 c0 -6 -32 -10 -75 -10 -43 0 -75 4 -75
10 0 6 32 10 75 10 43 0 75 -4 75 -10z m-2060 -93 c19 -13 19 -14 -10 -13 -29
1 -30 3 -29 46 1 44 1 45 10 13 5 -18 18 -38 29 -46z m1088 -156 c-2 -9 -11
-17 -21 -19 -21 -4 -35 27 -17 38 19 12 42 0 38 -19z m507 2 c-11 -2 -30 -6
-42 -9 -68 -14 -80 -188 -18 -250 33 -33 6 -32 -33 1 -73 62 -53 220 33 255
11 5 34 8 50 8 19 0 22 -2 10 -5z m-1231 -113 c21 -58 43 -108 49 -111 5 -4 3
-17 -5 -34 -14 -26 -15 -25 -62 97 -27 67 -50 125 -52 127 -2 2 -4 -48 -4
-113 0 -112 1 -117 23 -126 18 -7 14 -9 -22 -9 -39 -1 -42 1 -27 12 15 11 17
28 14 140 l-3 128 25 -3 c21 -3 29 -17 64 -108z m178 98 c-8 -8 -12 -51 -12
-130 0 -101 2 -118 18 -127 13 -8 6 -10 -33 -10 -39 0 -46 2 -32 10 15 9 17
26 16 127 l0 117 -20 -40 c-21 -43 -20 -33 2 28 11 32 17 37 43 37 23 0 27 -3
18 -12z m1106 0 c10 -10 15 -10 22 2 7 11 9 0 9 -35 -1 -48 -1 -48 -10 -18 -5
18 -19 39 -31 48 -13 8 -18 15 -12 15 5 0 16 -6 22 -12z m-986 -155 c3 -94 4
-97 28 -104 19 -6 16 -7 -15 -6 l-40 2 -5 86 c-3 51 -11 93 -19 103 -12 14
-10 16 17 16 l31 0 3 -97z m118 2 c0 -79 3 -96 18 -104 14 -9 11 -10 -15 -11
-24 0 -33 5 -33 16 0 14 -3 14 -15 4 -13 -11 -13 -8 0 23 20 49 19 125 -2 149
-15 17 -14 18 15 18 l32 0 0 -95z m116 82 c-26 -19 -17 -40 34 -79 31 -23 46
-42 48 -62 4 -31 -13 -56 -36 -56 -12 0 -13 3 -4 12 21 21 13 46 -25 74 -48
35 -63 53 -63 75 0 22 26 49 48 49 14 0 13 -2 -2 -13z m84 -19 c0 -16 -4 -28
-10 -28 -5 0 -10 6 -10 14 0 8 -9 21 -20 29 -19 13 -19 14 10 13 26 -1 30 -5
30 -28z m110 -67 c0 -70 4 -101 13 -104 6 -3 -10 -6 -38 -6 -39 0 -46 2 -32
10 14 8 17 25 17 94 0 69 -3 86 -17 94 -15 8 -11 10 20 11 l37 0 0 -99z m125
74 c-21 -20 -25 -34 -25 -80 0 -86 46 -120 99 -72 l25 22 -16 -25 c-16 -26
-52 -36 -94 -26 -59 15 -72 138 -19 183 36 32 61 30 30 -2z m79 6 c19 -21 14
-41 -11 -41 -11 0 -14 6 -9 24 4 18 1 26 -11 29 -15 4 -15 5 -2 6 9 0 24 -8
33 -18z m496 -3 l0 -21 23 21 c13 12 30 22 39 22 20 0 42 -26 33 -40 -11 -18
-35 -11 -35 10 0 56 -52 -6 -58 -69 -6 -63 3 -98 26 -104 9 -3 -8 -5 -38 -6
-42 0 -51 2 -37 10 24 14 25 159 1 183 -14 15 -13 16 15 16 25 0 31 -4 31 -22z
m196 9 c-9 -7 -21 -30 -26 -52 -22 -97 43 -172 100 -115 24 24 27 14 3 -12
-11 -12 -30 -18 -59 -18 -34 0 -47 5 -63 26 -46 58 -13 182 48 184 11 0 11 -3
-3 -13z m74 -7 c11 -11 20 -29 20 -40 0 -13 -7 -20 -20 -20 -15 0 -20 7 -20
24 0 14 -7 32 -16 40 -14 15 -14 16 0 16 9 0 25 -9 36 -20z m105 0 c-6 -10 34
-123 47 -131 5 -3 4 -18 -3 -35 -8 -20 -13 -25 -17 -14 -3 8 -21 56 -41 105
l-37 91 28 -4 c15 -2 26 -8 23 -12z m174 -131 c1 8 3 12 7 9 3 -3 -1 -21 -9
-39 l-14 -34 -29 77 c-16 43 -32 78 -35 78 -3 0 -10 -12 -17 -27 -9 -23 -10
-24 -5 -4 3 13 12 40 20 60 l16 36 33 -85 c18 -47 33 -79 33 -71z m59 131 c-8
-12 -15 -15 -19 -8 -4 6 -13 14 -20 19 -10 6 -4 9 19 9 29 0 31 -2 20 -20z
m-1949 -59 c-6 -18 -13 -30 -15 -28 -2 2 1 18 7 36 6 18 13 30 15 28 2 -2 -1
-18 -7 -36z m1231 -88 c0 -31 -3 -43 -9 -34 -6 10 -13 11 -29 2 -11 -6 -24
-11 -29 -11 -4 1 5 8 20 16 17 9 30 26 34 45 8 42 13 36 13 -18z m-801 -26 c7
-9 5 -13 -10 -13 -16 0 -19 7 -18 41 1 38 1 38 9 12 5 -16 13 -34 19 -40z"/>
<path d="M2258 2239 c-41 -21 -51 -56 -23 -79 12 -10 20 -9 40 4 20 13 25 25
25 56 0 22 -1 40 -2 40 -2 -1 -20 -10 -40 -21z"/>
</g>
</svg>
